<?xml version="1.0" encoding="iso-8859-1"?>
<!-- Generator: Adobe Illustrator 19.0.0, SVG Export Plug-In . SVG Version: 6.00 Build 0)  -->
<svg version="1.1" id="Layer_1" xmlns="http://www.w3.org/2000/svg" xmlns:xlink="http://www.w3.org/1999/xlink" x="0px" y="0px"
	 viewBox="0 0 512 512" style="enable-background:new 0 0 512 512;" xml:space="preserve">
<g>
	<rect x="136.004" y="396.004" style="fill:#F9B233;" width="47.995" height="23.998"/>
	<rect x="455.998" y="396.004" style="fill:#F9B233;" width="47.995" height="23.998"/>
</g>
<g>
	<rect x="200.005" y="339.995" style="fill:#CBBBA0;" width="64.001" height="23.998"/>
	<rect x="288.004" y="339.995" style="fill:#CBBBA0;" width="64.001" height="23.998"/>
	<rect x="376.002" y="339.995" style="fill:#CBBBA0;" width="64.001" height="23.998"/>
</g>
<rect x="184" y="180.003" style="fill:#FAC15C;" width="271.998" height="160.002"/>
<rect x="143.997" y="92.005" style="fill:#CBBBA0;" width="352.004" height="47.995"/>
<rect x="8.001" y="156.006" style="fill:#BE1622;" width="80" height="128.002"/>
<path style="fill:#1D1D1B;" d="M503.805,147.805h-367.61V84.195h367.61L503.805,147.805L503.805,147.805z M151.805,132.195h336.39
	V99.805h-336.39V132.195z"/>
<g>
	<rect x="32" y="180.191" style="fill:#FFFFFF;" width="31.999" height="15.61"/>
	<rect x="32" y="212.191" style="fill:#FFFFFF;" width="31.999" height="15.61"/>
	<rect x="32" y="244.192" style="fill:#FFFFFF;" width="31.999" height="15.61"/>
</g>
<g>
	<rect x="184" y="172.199" style="fill:#1D1D1B;" width="271.998" height="15.61"/>
	<path style="fill:#1D1D1B;" d="M511.805,412.195v-24.001h-24.001V156.001h-15.61v16.195h-8.195v15.61h8.195v144.39h-8.195v15.61
		h8.195v40.389h-24.001v24.001H191.806v-24.001h-24.001v-40.389H176v-15.61h-8.195v-144.39H176v-15.61h-8.195v-16.195h-15.61
		v232.195h-23.999v24.001H55.806V291.805h40V148.196H0.196v143.609h40.001v120.39H0v15.61h512v-15.61L511.805,412.195
		L511.805,412.195z M15.806,163.806h64.39v112.39h-64.39V163.806z M463.805,403.804h32.391v8.391h-32.391V403.804z M143.806,403.804
		h32.39v8.391h-32.39L143.806,403.804L143.806,403.804z"/>
	<path style="fill:#1D1D1B;" d="M192.196,371.805h79.61v-24h8.391v24h79.61v-24h8.389v24h79.611v-24H456v-15.61h-8.194h-79.611
		h-8.389h-79.61h-8.391h-79.61h-8.195v15.61h8.195V371.805z M432.196,347.805v8.39h-48.391v-8.39H432.196z M344.195,347.805v8.39
		h-48.39v-8.39H344.195z M256.196,347.805v8.39h-48.39v-8.39H256.196z"/>
</g>
<g>
	<rect x="168.005" y="108.198" style="fill:#FFFFFF;" width="16" height="15.61"/>
	<rect x="200.005" y="108.198" style="fill:#FFFFFF;" width="16" height="15.61"/>
	<rect x="232.005" y="108.198" style="fill:#FFFFFF;" width="16" height="15.61"/>
</g>
<g>
</g>
<g>
</g>
<g>
</g>
<g>
</g>
<g>
</g>
<g>
</g>
<g>
</g>
<g>
</g>
<g>
</g>
<g>
</g>
<g>
</g>
<g>
</g>
<g>
</g>
<g>
</g>
<g>
</g>
</svg>
