<?xml version="1.0" encoding="iso-8859-1"?>
<!-- Generator: Adobe Illustrator 19.0.0, SVG Export Plug-In . SVG Version: 6.00 Build 0)  -->
<svg version="1.1" id="Layer_1" xmlns="http://www.w3.org/2000/svg" xmlns:xlink="http://www.w3.org/1999/xlink" x="0px" y="0px"
	 viewBox="0 0 512 512" style="enable-background:new 0 0 512 512;" xml:space="preserve">
<path style="fill:#ACABB1;" d="M395.636,0H256H116.364C52.201,0,0,52.201,0,116.364c0,12.853,10.42,23.273,23.273,23.273h23.273
	v162.909v186.182c0,12.853,10.42,23.273,23.273,23.273s23.273-10.42,23.273-23.273V325.818h325.818v162.909
	c0,12.853,10.42,23.273,23.273,23.273c12.853,0,23.273-10.42,23.273-23.273V302.545V139.636h23.273
	c12.853,0,23.273-10.42,23.273-23.273C512,52.201,459.799,0,395.636,0z"/>
<path style="fill:#57575C;" d="M333.576,512c12.853,0,23.273-10.42,23.273-23.273v-71.171c9.033-3.198,15.515-11.792,15.515-21.92
	c0-12.853-10.42-23.273-23.273-23.273h-15.515H178.424h-15.515c-12.853,0-23.273,10.42-23.273,23.273
	c0,10.128,6.482,18.722,15.515,21.92v71.171c0,12.853,10.42,23.273,23.273,23.273c12.853,0,23.273-10.42,23.273-23.273v-69.818
	h108.606v69.818C310.303,501.58,320.723,512,333.576,512z"/>
<polygon style="fill:#8CB7E8;" points="418.909,279.273 93.091,279.273 93.091,302.545 93.091,325.818 418.909,325.818 
	418.909,302.545 "/>
<path style="fill:#898890;" d="M93.091,279.273V139.636H69.818H46.545v162.909v186.182c0,12.853,10.42,23.273,23.273,23.273
	s23.273-10.42,23.273-23.273V325.818v-23.273V279.273z"/>
<rect x="93.091" y="139.636" style="fill:#B3D8F4;" width="325.818" height="139.636"/>
<path style="fill:#95D6A6;" d="M395.636,0H256H116.364C52.201,0,0,52.201,0,116.364c0,12.853,10.42,23.273,23.273,23.273h23.273
	h23.273h23.273H256h162.909h23.273h23.273h23.273c12.853,0,23.273-10.42,23.273-23.273C512,52.201,459.799,0,395.636,0z"/>
<path style="fill:#64C37D;" d="M116.364,0C52.201,0,0,52.201,0,116.364c0,12.853,10.42,23.273,23.273,23.273h23.273h23.273h23.273
	H256V0H116.364z"/>
<g>
</g>
<g>
</g>
<g>
</g>
<g>
</g>
<g>
</g>
<g>
</g>
<g>
</g>
<g>
</g>
<g>
</g>
<g>
</g>
<g>
</g>
<g>
</g>
<g>
</g>
<g>
</g>
<g>
</g>
</svg>
