<?xml version="1.0" encoding="iso-8859-1"?>
<!-- Generator: Adobe Illustrator 19.0.0, SVG Export Plug-In . SVG Version: 6.00 Build 0)  -->
<svg version="1.1" id="Layer_1" xmlns="http://www.w3.org/2000/svg" xmlns:xlink="http://www.w3.org/1999/xlink" x="0px" y="0px"
	 viewBox="0 0 512 512" style="enable-background:new 0 0 512 512;" xml:space="preserve">
<rect x="84.112" y="158.016" style="fill:#E6E6E6;" width="343.785" height="343.785"/>
<polygon style="fill:#DB4417;" points="55.459,158.108 255.999,10.2 456.539,158.108 "/>
<path style="fill:#FFD890;" d="M255.999,457.009L255.999,457.009c-70.195,0-127.099-56.904-127.099-127.099l0,0
	c0-70.195,56.904-127.099,127.099-127.099l0,0c70.195,0,127.099,56.904,127.099,127.099l0,0
	C383.1,400.105,326.195,457.009,255.999,457.009z"/>
<g>
	<path style="fill:#4C1D1D;" d="M462.593,149.9L262.054,1.992c-3.598-2.656-8.509-2.656-12.107,0L49.406,149.9
		c-3.545,2.614-5.011,7.21-3.635,11.395c1.377,4.186,5.284,7.013,9.689,7.013h18.448v333.494c0,5.632,4.566,10.199,10.199,10.199
		h343.785c5.633,0,10.199-4.567,10.199-10.199V168.307h18.448c4.405,0,8.312-2.827,9.689-7.013
		C467.604,157.111,466.139,152.515,462.593,149.9z M255.999,22.873l169.405,124.944H86.596L255.999,22.873z M417.692,491.602H94.306
		V168.307h323.386V491.602z"/>
	<path style="fill:#4C1D1D;" d="M255.999,467.208c75.707,0,137.299-61.592,137.299-137.299s-61.592-137.3-137.299-137.3
		s-137.299,61.592-137.299,137.299S180.293,467.208,255.999,467.208z M255.999,213.008c64.459,0,116.9,52.441,116.9,116.9
		s-52.441,116.901-116.9,116.901s-116.9-52.441-116.9-116.9S191.54,213.008,255.999,213.008z"/>
	<path style="fill:#4C1D1D;" d="M222.249,364.55c-4.676,0-8.605,6.173-8.605,10.661c0,9.165,15.712,21.698,38.906,22.072v5.799
		c0,2.245,2.245,4.302,5.424,4.302c2.806,0,5.612-2.057,5.612-4.302v-6.359c20.202-2.806,34.043-15.525,34.043-38.532
		c0-25.439-17.769-33.67-34.043-39.655v-37.971c13.094,0.935,17.957,6.921,22.445,6.921c5.612,0,8.23-7.109,8.23-10.662
		c0-9.165-17.957-13.094-30.676-13.467v-5.051c0-2.244-2.806-4.302-5.612-4.302c-3.18,0-5.424,2.058-5.424,4.302v5.424
		c-17.77,1.871-35.539,11.223-35.539,34.792c0,23.943,18.704,30.675,35.539,36.661v43.957
		C233.472,377.644,228.422,364.55,222.249,364.55z M262.465,339.298c9.165,3.929,16.461,9.165,16.461,20.95
		c0,10.661-6.36,16.647-16.461,18.518V339.298z M235.717,296.652c0-9.727,7.482-14.403,17.957-15.712v34.043
		C243.76,311.242,235.717,307.313,235.717,296.652z"/>
	<path style="fill:#4C1D1D;" d="M281.755,137.981h80.627c5.633,0,10.199-4.567,10.199-10.199s-4.566-10.199-10.199-10.199h-80.627
		c-5.633,0-10.199,4.567-10.199,10.199S276.122,137.981,281.755,137.981z"/>
	<path style="fill:#4C1D1D;" d="M243.682,137.981h4.479c5.633,0,10.199-4.567,10.199-10.199s-4.566-10.199-10.199-10.199h-4.479
		c-5.633,0-10.199,4.567-10.199,10.199S238.049,137.981,243.682,137.981z"/>
</g>
<g>
</g>
<g>
</g>
<g>
</g>
<g>
</g>
<g>
</g>
<g>
</g>
<g>
</g>
<g>
</g>
<g>
</g>
<g>
</g>
<g>
</g>
<g>
</g>
<g>
</g>
<g>
</g>
<g>
</g>
</svg>
